<svg version="1.2" xmlns="http://www.w3.org/2000/svg" viewBox="0 0 233 89" width="233" height="89">
	<title>New Project</title>
	<style>
		tspan { white-space:pre } 
		.s0 { fill: none;stroke: #ffffff;stroke-width: 1.1 } 
		.s1 { fill: none;stroke: #ffffff;stroke-linecap: round;stroke-width: 1.1 } 
		.s2 { fill: #ffffff } 
		.t3 { font-size: 36px;line-height: 24px;fill: #ffffff;font-family: "Gill Sans" } 
		.s4 { fill: none;stroke: #ffffff;stroke-width: 1.2 } 
	</style>
	<g id="Folder 1">
		<path id="Path 235" fill-rule="evenodd" class="s0" d="m102.1 1012.3h-8.7v-6.6h8.7zm3.3 25.3h-15.3l3.3-25.3h8.7zm-12-31.8c0-2.4 1.9-4.3 4.3-4.3 2.4 0 4.3 1.9 4.3 4.3"/>
		<path id="Path 236" fill-rule="evenodd" class="s1" d="m92.1 1005.7h11.3m-11.3 6.6h11.3m-18 25.3h24.6m-5.7-6.5h-13.4m12.8-6.5h-11.9m11.1-6.1h-10.3m5.1-17.1v-1.5m-1.4 5.8v6.6m2.9-6.6v6.6"/>
		<path id="Path 237" fill-rule="evenodd" class="s2" d="m79.8 70.4h-3.1l-16.5-19v19h-3.4v-24.7h2.8l16.8 19.2v-19.2h3.4zm7.5 0h-3.5v-24.8h3.5zm27 0h-3.1l-16.5-19v19h-3.4v-24.7h2.9l16.7 19.2v-19.2h3.4zm7.5-3.2h11.2v3.2h-14.8v-24.7h3.6zm37.2 3.1h-3.7l-3.3-7.2h-10.5l-3.1 7.2h-3.6l10.6-24.8h2.5zm-16.1-10.5h7.7l-4-9z"/>
		<path id="Path 239" fill-rule="evenodd" class="s2" d="m167.3 45.7c5 0 8.1 2.6 8.1 6.9 0 2.9-1.5 5-4.1 6.1 2.2 1.5 3.6 3.8 5.5 6.8 1 1.8 1.7 2.6 3.4 4.9h-4.3l-3.3-5c-3.2-5.1-4.7-5.7-6.5-5.7h-1.5v10.7h-3.6v-24.7zm-2.6 10.8h2.2c3.8 0 4.9-2 4.9-4 0-2.3-1.4-3.8-4.9-3.8h-2.2z"/>
		<path id="Path 240" fill-rule="evenodd" class="s2" d="m192.2 45.4c8.1 0 13.3 5.8 13.3 12.7 0 6.6-5 12.7-13.4 12.7-8.1 0-13.2-6-13.2-12.7 0-6.9 5.3-12.7 13.3-12.7zm0 22.1c5.5 0 9.6-4 9.6-9.4 0-5.5-4.1-9.5-9.6-9.5-5.5 0-9.6 4-9.6 9.5 0 5.4 4.1 9.4 9.6 9.4zm-179.6 19c-8.1-5.3-8.6-18.4-1.2-29.1 7.5-10.8 20.1-15.2 28.3-9.9 8.1 5.3 8.6 18.3 1.2 29.1-7.5 10.7-20.1 15.2-28.3 9.9zm27.7-10.3c7.2-10.3 7-22.6-0.3-27.4-7.3-4.7-19.1-0.3-26.2 10-7.2 10.3-7 22.6 0.3 27.4 7.4 4.8 19.1 0.3 26.2-10z"/>
		<path id="Path 241" fill-rule="evenodd" class="s2" d="m24.2 77.4c-12.7 0.7-23.4-6.5-24-16.2-0.6-9.7 9.3-18.2 22-18.9 12.7-0.8 23.5 6.5 24 16.2 0.6 9.7-9.3 18.1-22 18.9zm21.1-17.8c-0.5-8.7-10.8-15.2-23-14.5-12.2 0.7-21.6 8.3-21.1 17.1 0.5 8.7 10.8 15.2 23 14.5 12.1-0.7 21.6-8.4 21.1-17.1z"/>
		<path id="Path 242" fill-rule="evenodd" class="s2" d="m9.7 36.7c7-6.8 20-4.9 28.9 4.2 9 9.2 10.6 22.1 3.6 29-7 6.8-19.9 4.9-28.9-4.2-8.9-9.2-10.5-22.2-3.6-29zm4.2 28.5c8.5 8.8 20.6 10.9 26.9 4.7 6.3-6.1 4.4-18.2-4.1-27-8.6-8.8-20.7-10.9-27-4.7-6.3 6.2-4.4 18.3 4.2 27zm201.3-14.8c0 2.4-2 4.3-4.4 4.3-2.5 0-4.5-1.9-4.5-4.3 0-2.4 2-4.3 4.5-4.3 2.4 0 4.4 1.9 4.4 4.3zm-7.8 0c0 1.9 1.4 3.4 3.4 3.4 1.9 0 3.3-1.5 3.3-3.4 0-1.9-1.4-3.5-3.3-3.5-2 0-3.4 1.6-3.4 3.5zm2.7 2.2h-1v-4.3q0.6-0.1 1.6-0.1c0.8 0 1.2 0.1 1.5 0.3 0.3 0.2 0.4 0.5 0.4 1 0 0.4-0.3 0.8-0.9 1 0.5 0.2 0.7 0.5 0.8 1.1 0.2 0.6 0.2 0.9 0.3 1h-1c-0.2-0.1-0.2-0.5-0.4-1 0-0.5-0.3-0.7-0.9-0.7h-0.4zm0-2.4h0.5c0.5 0 1-0.2 1-0.7 0-0.4-0.3-0.6-1-0.6q-0.3 0-0.5 0z"/>
		<text id="IXAZOMIB" style="transform: matrix(.975,0,0,1.026,55.572,32.254)" >
			<tspan x="0" y="0" class="t3">IXAZOMIB
</tspan>
		</text>
		<path id="Path 243" class="s4" d="m232.1 39.1h-179.3v-38.4h179.3z"/>
	</g>
	<text id="" style="transform: matrix(1,0,0,1,68,-246)" >
	</text>
</svg>