<svg version="1.2" xmlns="http://www.w3.org/2000/svg" viewBox="0 0 761 395" width="761" height="395">
	<title>New Project</title>
	<defs>
		<linearGradient id="g1" x1="118.4" y1="155.1" x2="723.4" y2="155.1" gradientUnits="userSpaceOnUse">
			<stop offset="0" stop-color="#ffffff"/>
			<stop offset="1" stop-color="#ef7622"/>
		</linearGradient>
	</defs>
	<style>
		tspan { white-space:pre } 
		.s0 { fill: none;stroke: #000000;stroke-width: .8 } 
		.s1 { fill: none;stroke: #ef7622;stroke-linecap: round;stroke-width: 1.3 } 
		.t2 { font-size: 12px;line-height: 24px;fill: #0065a1;font-weight: 500;font-family: "Gotham" } 
		.s3 { fill: url(#g1) } 
		.s4 { fill: none;stroke: #59595c;stroke-width: 1.3 } 
		.s5 { fill: none;stroke: #ef7622;stroke-width: 1.3 } 
		.t6 { font-size: 12px;line-height: 24px;fill: #59595c;font-family: "Gotham" } 
		.t7 { font-size: 12px;line-height: 24px;fill: #ef7622;font-family: "Gotham" } 
		.s8 { fill: none;stroke: #59595c;stroke-linecap: round;stroke-linejoin: round;stroke-width: .7 } 
		.t9 { font-size: 13px;line-height: 24px;fill: #59595c;font-family: "Gotham" } 
		.t10 { font-size: 13px;line-height: 24px;fill: #59595c;font-style: italic;font-family: "Gotham" } 
		.t11 { font-size: 19px;line-height: 24px;fill: #4d4d4f;font-weight: bold;font-family: "Gotham" } 
		.s12 { fill: none;stroke: #4d4d4f;stroke-width: 4.9 } 
		.s13 { fill: #4d4d4f } 
		.t14 { font-size: 35px;line-height: 24px;fill: #59595c;font-weight: bold;font-family: "Gotham" } 
		.t15 { font-size: 35px;line-height: 24px;fill: #ef7622;font-weight: bold;font-family: "Gotham" } 
		.t16 { font-size: 14px;line-height: 12px;fill: #77787b;font-family: "Helvetica Neue LT Std" } 
	</style>
	<g id="Folder 1">
		<path id="Path 2198" class="s0" d="m117.7 322.5h640.6m-640.6 71.2h640.6m-640.6-210.2h640.6m-640.6 69.5h640.6m-640.6-138.9h640.6m-640.6-69.5h640.6"/>
		<path id="Path 2200" class="s1" d="m1.4 1.5h758.7"/>
		<text id="PROBABILITY OF PFS" style="transform: matrix(0,-1,1,0,33.088,287.701)" >
			<tspan x="0" y="0" class="t2">PROBABILITY OF PFS
</tspan>
		</text>
		<path id="Path 2203" class="s3" d="m118.9 44.2l5.5 0.1h-5.4l0.2 0.1-0.8-0.1h0.6zm16.4 0v0.2l-10.9-0.2zm0 0.2l7.4 0.2 0.3 4.5h-0.9v-2.2h-5.9v-1.1h-0.9zm15 4.7v1.4h4.6 0.8v0.8h0.6v0.8h1.7v1.5h5.8v1.7h3.1v0.9h1.4v1.3h1.6v0.9h2.4v2.1h1.6v2.1h10.7v1h3.6v3.2h4v2.8h0.8v1.1h1.6v1h1.9v0.9h1.8v2h1.4v2.1h5v1.5h6.8v1.1h4.9v2.2h0.6v1.5h1.2v1.2h0.8v1.5h1v1.4h3v0.9h2.1v1.2h1.6v0.9h12.1v1.1h1.6v4.2h2.1v1.3h1.5v1.6h2.2v1.3h6.6v1.5h1.5v1.2h9.8v2.7h5.4v0.8h9.7v1.5h3.3v1.3h5.4v7.8h7.1v2.5h7v1h1.2v1.7 1h8.7v1.7h1.3v1.6h1.1v1.1h3.8 1.2v1.8h0.9v1.8h10.6v1h2.8v1.2h2.7v3h23.1v2.4h1.9v1.7h1.7v3h3.9v1.5h10.9v1.9h1.4v1.5h4.6v2.1h3.2v1.8h7.5v1.5h6v2h5.8v1.1h10.9v2.1h2.7v2.8h10.7l4.9 3.2h11.7v1.8h3.9v2h5.1v3.2h8.6 14.5v2.2h20v2.2h23.1v2.6h6.2v1.1h1.1v1.5h4.1v2h13.9v3.5h4.8v2.7h5.7v7.3h4.3v3.1h13.3v3.8h24.2v8.6h7.4v6.1h49.6v9.8h21.5v15.6c0.4 0 44.9-1 44.9-1l-7.9 23.5h-71.2v-10.2h-48.9v-5.3h-13.5v-5.2h-4.6v-3.3h-1.7l0.3-3-25.2 1.1v-5h-16.7v-5.5h-5.2l-1.8-5.5h-18.3v-1.4h-6.9v-2.9h-15.9v-2.1h-5.4v-1.5h-5.3v-2.6h-0.9v-2.6h-10.4v-2.7h-3.4l-2-2.5v-5.2h-1.5l-1.6-2h-8.9v-1.9h-7.6v-4.1h-3.5l-3.7-4.7h-11.1l-0.6-0.7h-5.7v-2.4l-2-1h-4.5v-4.5h-13.3v-1h-4.3l-7-5v-2.6l-1.8-4.3h-8.5v-3.3h-2.1v-1.7h-5.7v-4.7h-3.2v-3.8h-1.6v-3.1h-2.2v-2.7h-4.5v-1.9h-11.8v-1.6h-6.5v-3.9h-3.9v-2.6h-13.9v-2.6h-4.2v-1.9l0.3-3.1-2.4 0.2v-2.6l-2.4 0.3-0.3-1.2-8 0.2-0.7-1.9-6.3-0.2v-2.9l-5.6-0.7-0.7-3.1-5 0.5v-1.9h-1.9l-0.5-1.7-4.1 0.9-0.7-1.6-4.5 0.4-0.2-1.1h-2.7l-3.9-1.2 0.4-4.1-6.3 0.3-0.8-2-4-0.2-0.8-2.4-2.2 0.3-0.9-1.9-4.8 0.7-1-2.4-2.7 1.2-1.9-5.3-3 0.5 0.2-1.9-9.6 0.7v-1.9l-5.2 0.5v-2.4l-3.7 0.3 0.4-2-1.7 0.5 0.2-3.1-1.3-0.9v-3.4l-0.5-1.6h-11.7v-1.5h-9.2v-1.9l-2.1-2.4 0.4-2.6-0.9-0.8h-4.5v-1.4h-6.6v-2.3h-3.5v-1.7h-4.2v-1.7h-1.3v-1.4h-1.6v-1.2h-1.1v-2.6h-1.5l0.1-2-12.5-0.4-2.5-2.6-2.7 0.1-2.7-2.5-3.3-1.9-0.1-1.5z"/>
		<path id="Path 2204" class="s4" d="m715.8 265.5h-71.3v-10.3h-48.8v-5.2h-13.5v-5.3h-4.7v-3.3h-1.6l-0.1-1.9h-24.9v-5h-16.6v-5.5h-5.2l-1.9-5.5h-18.3v-1.4h-6.8v-3.3h-16v-1.7h-5.3v-1.4h-5.4v-2.7h-0.9v-2.6h-10.4v-2.7h-3.4l-1.9-2.5v-5.1h-1.6l-1.6-2.1h-8.9v-1.9h-7.6v-4h-3.5l-3.7-4.8h-11.1l-0.5-0.7h-5.8v-2.4l-2-0.9h-4.4v-4.6h-13.4v-0.9h-4.2l-7-5v-2.6l-1.9-4.3h-8.5v-3.4h-2v-1.6h-5.8v-4.8h-3.1v-3.8h-1.7v-3.1h-2.2v-2.6h-4.5v-1.9h-11.8v-1.7h-6.5v-3.8h-3.9v-2.6h-13.8v-2.7h-4.3v-1.9l0.4-3.1-2.4 0.3v-2.7l-2.4 0.3-0.4-1.2-8 0.2-0.7-1.9-6.3-0.2v-2.9l-5.5-0.7-0.8-3.1-5 0.5v-1.9h-1.8l-0.6-1.7-4 1-0.8-1.7-4.4 0.5-0.2-1.2h-2.8l-3.9-1.2 0.4-4.1-6.3 0.3-0.7-1.9-4.1-0.3-0.7-2.3-2.3 0.2-0.9-1.9-4.8 0.7-0.9-2.4-2.8 1.2-1.9-5.2-2.9 0.4 0.2-1.9-9.7 0.8v-2l-5.1 0.5v-2.4l-3.7 0.3 0.3-1.9-1.6 0.4 0.2-3-1.3-1v-3.3l-0.6-1.7h-11.6v-1.4h-9.3v-1.9l-2-2.4 0.3-2.6-0.9-0.8h-4.5v-1.5h-6.6v-2.3h-3.5v-1.6h-4.2v-1.8h-1.3v-1.4h-1.5v-1.2h-1.2v-2.6h-1.5l0.1-2-12.5-0.3-2.5-2.7-2.7 0.1-2.7-2.4-3.3-1.9-0.4-6-7.4-0.2-3.1-0.3-13 0.3"/>
		<path id="Path 2206" class="s5" d="m723.6 242c0 0-45.4 0.9-44.9 0.9v-15.6h-21.5v-9.7h-49.6v-6.1h-7.4v-8.6h-24.1v-3.8h-13.4v-3.1h-4.3v-7.3h-5.7v-2.7h-4.8v-3.5h-13.8v-2h-4.2v-1.6h-1.1v-1h-6.1v-2.7h-23.2v-2.2h-20v-2.1h-14.4-8.7v-3.3h-5.1v-2h-3.9v-1.8h-11.6l-5-3.2h-10.7v-2.8h-2.7v-2.1h-10.9v-1.1h-5.7v-2h-6.1v-1.5h-7.5v-1.8h-3.2v-2.1h-4.6v-1.4h-1.4v-2h-10.9v-1.4h-3.8v-3.1h-1.8v-1.7h-1.9v-2.4h-23.1v-2.9h-2.7v-1.2h-2.8v-1.1h-10.6v-1.8h-0.8v-1.7h-1.3-3.7v-1.1h-1.2v-1.7h-1.2v-1.7h-8.8v-1-1.7h-1.2v-0.9h-6.9v-2.6h-7.1v-7.8h-5.5v-1.3h-3.3v-1.4h-9.6v-0.8h-5.5v-2.7h-9.8v-1.3h-1.4v-1.4h-6.7v-1.4h-2.2v-1.6h-1.5v-1.2h-2v-4.3h-1.6v-1.1h-12.2v-0.9h-1.6v-1.2h-2v-0.9h-3.1v-1.3h-1v-1.5h-0.7v-1.2h-1.3v-1.5h-0.6v-2.3h-4.9v-1.1h-6.7v-1.5h-5v-2.1h-1.5v-1.9h-1.8v-1h-1.9v-0.9h-1.6v-1.2h-0.8v-2.8h-4v-3.2h-3.6v-1h-10.7v-2.1h-1.6v-2.1h-2.4v-0.9h-1.5v-1.3h-1.4v-0.9h-3.1v-1.7h-5.8v-1.5h-1.8v-0.7h-0.6v-0.9h-0.8-4.5v-1.4h-8.2v-2.1h-6v-1.1h-0.9v-1.6h-16.9"/>
		<text id="Median PFS with placebo + Rd" style="transform: matrix(1,0,0,1,298.754,301.388)" >
			<tspan x="0" y="0" class="t6" dx="0 0 0 0 0 0 0 0 0 0 0 0 0 0 0 0 0 0 0 0 0 0 0 0 0 0 0 0 0" >Median PFS with placebo + Rd
</tspan>
		</text>
		<text id="Median PFS with Ixazomib (NINLAR" style="transform: matrix(1,0,0,1,378.526,96.026)" >
			<tspan x="0" y="0" class="t7">Median PFS with Ixazomib (NINLARO) + Rd
</tspan>
		</text>
		<path id="Path 2210" class="s8" d="m656.3 215.8v-158.6"/>
		<text id="HR=0.74 (95% Cl, 0.59–0.94); P=0" style="transform: matrix(1,0,0,1,130.794,371.44)" >
			<tspan x="0" y="0" class="t9">HR=0.74 (95% Cl, 0.59–0.94); </tspan><tspan  y="0" class="t10">P</tspan><tspan  y="0" class="t9">=0.01
</tspan>
		</text>
		<text id="5.9 months" style="transform: matrix(1,0,0,1,525.102,296.633)" >
			<tspan x="0" y="0" class="t11">5.9 months
</tspan>
		</text>
		<path id="Path 2213" class="s8" d="m502.9 305.9l-0.8-85.7"/>
		<path id="Path 2214" class="s12" d="m518.7 304.9h122.4"/>
		<path id="Path 2215" class="s13" d="m520.5 311l-10.6-6.1 10.6-6.1zm118.8-12.3l10.6 6.1-10.6 6.2z"/>
		<text id="14.7 months" style="transform: matrix(1,0,0,1,281.419,285.805)" >
			<tspan x="0" y="0" class="t14">14.7 months
</tspan>
		</text>
		<text id="20.6 months" style="transform: matrix(1,0,0,1,427.989,80.614)" >
			<tspan x="0" y="0" class="t15">20.6 months
</tspan>
		</text>
		<text id="1.0" style="transform: matrix(1,0,0,1,95.376,49.566)" >
			<tspan x="0" y="0" class="t16">1.0
</tspan>
		</text>
		<text id="0.8" style="transform: matrix(1,0,0,1,95.376,117.727)" >
			<tspan x="0" y="0" class="t16">0.8
</tspan>
		</text>
		<text id="0.6" style="transform: matrix(1,0,0,1,95.376,185.887)" >
			<tspan x="0" y="0" class="t16">0.6
</tspan>
		</text>
		<text id="0.4" style="transform: matrix(1,0,0,1,95.376,254.047)" >
			<tspan x="0" y="0" class="t16">0.4
</tspan>
		</text>
		<text id="0.2" style="transform: matrix(1,0,0,1,95.376,322.207)" >
			<tspan x="0" y="0" class="t16">0.2
</tspan>
		</text>
		<text id="0.0" style="transform: matrix(1,0,0,1,95.376,390.368)" >
			<tspan x="0" y="0" class="t16">0.0
</tspan>
		</text>
	</g>
</svg>