<svg xmlns="http://www.w3.org/2000/svg" xmlns:xlink="http://www.w3.org/1999/xlink" width="810.3" height="1668" viewBox="0 0 810.3 1668">
  <defs>
    <clipPath id="clip-path">
      <path id="Path_7" data-name="Path 7" d="M16.3-.675H819.7V-1668H16.3Z" transform="translate(1420.599 1668)"/>
    </clipPath>
    <clipPath id="clip-path-2">
      <rect x="1414" width="810" height="1668" fill="none"/>
    </clipPath>
    <clipPath id="clip-path-3">
      <path id="Path_30" data-name="Path 30" d="M0,0H2224V-1668H0Z" transform="translate(0 1668)"/>
    </clipPath>
  </defs>
  <g id="Group_21" data-name="Group 21" transform="translate(-3841 2830)">
    <g id="PlacedPDF" transform="translate(2159 -2709)">
      <g id="Group_4" data-name="Group 4" transform="translate(252 -121)" clip-path="url(#clip-path)">
        <path id="Path_1" data-name="Path 1" d="M0,0A2654.962,2654.962,0,0,1,228.747,286.187C539.111,734.477,681.617,1230.23,660.713,1668H692.12V0Z" transform="translate(1553.723 -0.675)" fill="#5c5c61"/>
        <path id="Path_5" data-name="Path 5" d="M0,0A2654.965,2654.965,0,0,0-228.747-286.187H-345.572A2633.227,2633.227,0,0,1-17.687,101.97C268.812,515.788,412.275,970.05,416.2,1381.81h15.764C452.87,944.043,310.364,448.29,0,0" transform="translate(1782.47 285.512)" fill="#bdbbbb"/>
        <path id="Path_6" data-name="Path 6" d="M0,0H-1455.76V1668H761.774c6.574-411.76-136.89-866.025-423.388-1279.843C239.1,244.77,128.683,115,0,0" transform="translate(1426.398 -0.675)" fill="#fff"/>
      </g>
    </g>
    <g id="cross" transform="translate(2427 -2830)">
      <g id="Scroll_Group_1" data-name="Scroll Group 1" clip-path="url(#clip-path-2)" style="isolation: isolate">
        <g id="Artifact">
          <g id="Group_20" data-name="Group 20" clip-path="url(#clip-path-3)">
            <path id="Path_28" data-name="Path 28" d="M0,0A50.66,50.66,0,0,0,50.563-50.641,50.66,50.66,0,0,0,0-101.282,50.659,50.659,0,0,0-50.563-50.641,50.659,50.659,0,0,0,0,0" transform="translate(1618.799 154.046)" fill="#0065a1"/>
            <path id="Path_29" data-name="Path 29" d="M0,0A50.66,50.66,0,0,0,50.563-50.641,50.66,50.66,0,0,0,0-101.282,50.659,50.659,0,0,0-50.563-50.641,50.659,50.659,0,0,0,0,0Z" transform="translate(1618.799 154.046)" fill="none" stroke="#fff" stroke-width="3.831"/>
          </g>
          <path id="Path_31" data-name="Path 31" d="M0,0,24.463-24.473,0-48.945" transform="translate(1593.271 127.877)" fill="none" stroke="#fff" stroke-miterlimit="10" stroke-width="3.203"/>
        </g>
      </g>
      <g id="Artifact-2" data-name="Artifact">
        <path id="Path_32" data-name="Path 32" d="M0,0-24.463,24.473,0,48.945" transform="translate(1644.327 78.932)" fill="none" stroke="#fff" stroke-miterlimit="10" stroke-width="3.203"/>
      </g>
    </g>
  </g>
</svg>